<svg width="313" height="187" viewBox="0 0 313 187" fill="none" xmlns="http://www.w3.org/2000/svg">
<g clip-path="url(#clip0)">
<path d="M239.64 184.885C235.633 181.502 233.199 176.156 233.837 170.953C234.476 165.749 238.429 160.965 243.558 159.86C248.686 158.755 254.532 161.814 256.09 166.82C256.947 157.168 257.935 147.112 263.07 138.893C267.72 131.45 275.773 126.125 284.501 125.172C293.229 124.22 302.418 127.818 307.862 134.702C313.305 141.586 314.638 151.594 310.826 159.498C308.017 165.32 302.843 169.653 297.422 173.178C279.904 184.473 258.893 189.066 238.256 186.113L239.64 184.885Z" fill="#F2F2F2"/>
<path d="M299.231 128.017C292.029 133.879 285.422 140.435 279.506 147.59C270.247 158.75 262.754 171.262 257.289 184.691C256.889 185.67 258.481 186.097 258.877 185.128C267.818 163.304 282.093 144.068 300.395 129.181C301.217 128.512 300.046 127.354 299.231 128.017Z" fill="white"/>
<path d="M100.76 183.966C106.264 179.318 109.607 171.977 108.73 164.829C107.853 157.682 102.423 151.112 95.3792 149.594C88.3353 148.076 80.3057 152.277 78.1663 159.154C76.9888 145.897 75.632 132.085 68.579 120.795C62.1926 110.573 51.1314 103.259 39.1434 101.95C27.1555 100.642 14.5337 105.584 7.05727 115.039C-0.419167 124.494 -2.24974 138.241 2.98656 149.096C6.84396 157.093 13.9507 163.044 21.3967 167.886C45.1522 183.333 74.6208 189.775 102.661 185.652" fill="#F2F2F2"/>
<path d="M18.9119 105.858C28.8035 113.909 37.8779 122.913 46.004 132.741C54.1314 142.559 61.2867 153.141 67.3693 164.34C70.7693 170.621 73.8235 177.084 76.5184 183.699C77.0679 185.044 74.8815 185.63 74.3381 184.299C69.5648 172.638 63.6592 161.472 56.7061 150.962C49.7868 140.49 41.8674 130.713 33.0589 121.77C28.0768 116.713 22.8203 111.935 17.3131 107.455C16.1843 106.537 17.7924 104.947 18.9119 105.858L18.9119 105.858Z" fill="white"/>
<path d="M224.676 186.591H93.3604V51.9506C93.3604 23.3049 116.681 -1.90735e-06 145.347 -1.90735e-06H172.69C201.355 -1.90735e-06 224.676 23.3049 224.676 51.9506V186.591Z" fill="#F2F2F2"/>
<path d="M197.334 186.591H93.3603V51.9506C93.3316 40.9742 96.8098 30.2752 103.288 21.4114C103.527 21.0861 103.765 20.7651 104.011 20.4475C107.145 16.3404 110.874 12.7233 115.076 9.71563C115.313 9.54307 115.551 9.37349 115.793 9.20392C119.309 6.77263 123.112 4.78511 127.116 3.28658C127.353 3.19653 127.596 3.10629 127.838 3.01975C131.459 1.72838 135.213 0.843799 139.029 0.382339C139.266 0.350036 139.509 0.324758 139.752 0.29948C143.472 -0.0979576 147.223 -0.0979576 150.943 0.29948C151.185 0.324758 151.428 0.350033 151.667 0.382684C155.483 0.844175 159.236 1.72865 162.856 3.01976C163.099 3.10631 163.341 3.19654 163.579 3.28677C167.534 4.76639 171.292 6.72426 174.77 9.11667C175.012 9.28257 175.254 9.45215 175.492 9.62172C177.847 11.3017 180.059 13.1732 182.106 15.2173C183.747 16.8568 185.277 18.6045 186.684 20.4486C186.929 20.7651 187.167 21.0862 187.405 21.4109C193.884 30.2748 197.363 40.974 197.334 51.9506V186.591Z" fill="#CCCCCC"/>
<path d="M188.879 126.371C192.058 126.371 194.636 123.796 194.636 120.619C194.636 117.442 192.058 114.867 188.879 114.867C185.7 114.867 183.123 117.442 183.123 120.619C183.123 123.796 185.7 126.371 188.879 126.371Z" fill="#024EDB"/>
<path d="M213.919 182.558H209.508L207.41 165.557L213.92 165.557L213.919 182.558Z" fill="#FFB8B8"/>
<path d="M206.358 181.298H214.864V186.651H201.002C201.002 185.948 201.14 185.252 201.409 184.602C201.679 183.953 202.073 183.363 202.57 182.866C203.068 182.369 203.658 181.975 204.308 181.706C204.958 181.437 205.654 181.298 206.358 181.298Z" fill="#2F2E41"/>
<path d="M235.865 182.558H231.454L229.356 165.557L235.866 165.557L235.865 182.558Z" fill="#FFB8B8"/>
<path d="M228.304 181.298H236.81V186.651H222.948C222.948 185.948 223.086 185.252 223.355 184.602C223.625 183.953 224.019 183.363 224.516 182.866C225.014 182.369 225.604 181.975 226.254 181.706C226.904 181.437 227.6 181.298 228.304 181.298Z" fill="#2F2E41"/>
<path d="M191.793 121.758C191.475 121.291 191.264 120.76 191.175 120.203C191.085 119.645 191.118 119.075 191.273 118.532C191.428 117.989 191.7 117.486 192.07 117.06C192.44 116.633 192.899 116.293 193.415 116.062L208.409 74.7657L215.787 78.7892L198.667 118.254C198.997 119.146 198.987 120.127 198.641 121.013C198.294 121.898 197.635 122.626 196.788 123.058C195.94 123.49 194.964 123.596 194.043 123.356C193.122 123.117 192.322 122.548 191.793 121.758Z" fill="#FFB8B8"/>
<path d="M233.612 129.518C233.122 129.237 232.699 128.853 232.374 128.391C232.049 127.929 231.829 127.402 231.729 126.846C231.63 126.29 231.654 125.719 231.8 125.174C231.945 124.628 232.208 124.121 232.571 123.688L227.926 80.003L236.322 80.3863L238.253 123.356C238.94 124.013 239.362 124.9 239.439 125.847C239.517 126.795 239.243 127.738 238.671 128.497C238.099 129.257 237.268 129.78 236.336 129.968C235.403 130.157 234.434 129.996 233.612 129.518Z" fill="#FFB8B8"/>
<path d="M220.217 67.1164C225.098 67.1164 229.054 63.163 229.054 58.2862C229.054 53.4095 225.098 49.4561 220.217 49.4561C215.337 49.4561 211.381 53.4095 211.381 58.2862C211.381 63.163 215.337 67.1164 220.217 67.1164Z" fill="#FFB8B8"/>
<path d="M233.555 119.583H206.916L206.948 119.376C206.995 119.066 211.695 88.2993 208.229 78.2338C207.881 77.2447 207.912 76.1619 208.315 75.1939C208.718 74.226 209.465 73.4412 210.413 72.9907H210.413C215.367 70.6591 224.878 67.7881 232.905 74.7557C234.087 75.7979 235.009 77.1004 235.6 78.5603C236.19 80.0201 236.433 81.5973 236.309 83.167L233.555 119.583Z" fill="#024EDB"/>
<path d="M212.032 92.8461L200.039 90.4146L205.66 77.1017C205.997 75.8122 206.831 74.7088 207.981 74.0334C209.13 73.358 210.501 73.1657 211.792 73.4988C213.083 73.8319 214.189 74.6631 214.868 75.8101C215.547 76.9572 215.742 78.3264 215.412 79.6174L212.032 92.8461Z" fill="#024EDB"/>
<path d="M227.393 97.3608L226.672 80.844C226.125 77.7391 227.904 74.804 230.639 74.3242C233.375 73.8462 236.047 75.9996 236.596 79.1273L239.306 94.5607L227.393 97.3608Z" fill="#024EDB"/>
<path d="M232.669 117.606C236.956 133.919 237.423 154.661 236.267 177.286L230.511 176.567L220.077 133.424L214.321 177.286L207.845 176.926C205.91 153.187 204.027 132.808 207.125 119.403L232.669 117.606Z" fill="#2F2E41"/>
<path d="M226.04 65.1104C224.391 66.8652 221.33 65.9232 221.115 63.526C221.098 63.3399 221.099 63.1525 221.119 62.9667C221.229 61.9048 221.843 60.9408 221.696 59.8196C221.663 59.5405 221.559 59.2746 221.394 59.047C220.08 57.2892 216.997 59.8332 215.757 58.2419C214.997 57.2662 215.891 55.7299 215.307 54.6394C214.537 53.2 212.257 53.91 210.827 53.1218C209.235 52.2447 209.331 49.8051 210.378 48.3212C211.655 46.5116 213.895 45.5459 216.107 45.4067C218.319 45.2676 220.515 45.865 222.58 46.6692C224.926 47.5828 227.252 48.8455 228.696 50.907C230.452 53.414 230.621 56.7844 229.743 59.7159C229.209 61.4991 227.386 63.6775 226.04 65.1104Z" fill="#2F2E41"/>
<path d="M302.2 186.822H36.5841C36.4707 186.822 36.3621 186.776 36.282 186.696C36.2019 186.616 36.157 186.507 36.157 186.394C36.157 186.281 36.2019 186.172 36.282 186.092C36.3621 186.011 36.4707 185.966 36.5841 185.966H302.2C302.314 185.966 302.422 186.011 302.502 186.092C302.582 186.172 302.627 186.281 302.627 186.394C302.627 186.507 302.582 186.616 302.502 186.696C302.422 186.776 302.314 186.822 302.2 186.822Z" fill="#3F3D56"/>
<path d="M168.732 147.583H121.962C121.346 147.586 120.754 147.345 120.316 146.913C119.877 146.48 119.628 145.892 119.624 145.276V40.9548C119.628 40.3393 119.877 39.7508 120.316 39.3184C120.754 38.886 121.346 38.645 121.962 38.6483H168.732C169.348 38.645 169.94 38.886 170.379 39.3184C170.817 39.7508 171.066 40.3393 171.071 40.9548V145.276C171.066 145.892 170.817 146.48 170.379 146.913C169.94 147.345 169.348 147.586 168.732 147.583Z" fill="white"/>
<path d="M171.071 72.4035H119.624V73.1226H171.071V72.4035Z" fill="#CCCCCC"/>
<path d="M171.251 113.428H119.803V114.147H171.251V113.428Z" fill="#CCCCCC"/>
<path d="M136.533 38.6484H135.813V147.942H136.533V38.6484Z" fill="#CCCCCC"/>
<path d="M154.521 38.6484H153.802V147.942H154.521V38.6484Z" fill="#CCCCCC"/>
</g>
<defs>
<clipPath id="clip0">
<rect width="313" height="187" fill="white"/>
</clipPath>
</defs>
</svg>
