<svg width="420" height="323" viewBox="0 0 420 323" fill="none" xmlns="http://www.w3.org/2000/svg">
<path d="M96.7088 223.535L129.227 172.353L56.4019 126.004L18.7933 185.198L79.0285 223.535H96.7088Z" fill="#F0F0F0"/>
<path d="M142.79 239.502H62.2416V223.273H142.79V239.502ZM63.2877 238.455H141.743V224.32H63.2877V238.455Z" fill="#3F3D56"/>
<path d="M132.852 236.622C135.74 236.622 138.082 234.279 138.082 231.387C138.082 228.496 135.74 226.152 132.852 226.152C129.963 226.152 127.621 228.496 127.621 231.387C127.621 234.279 129.963 236.622 132.852 236.622Z" fill="#024EDB"/>
<path d="M118.207 236.622C121.095 236.622 123.437 234.279 123.437 231.387C123.437 228.496 121.095 226.152 118.207 226.152C115.318 226.152 112.976 228.496 112.976 231.387C112.976 234.279 115.318 236.622 118.207 236.622Z" fill="#024EDB"/>
<path d="M103.562 236.622C106.45 236.622 108.792 234.279 108.792 231.387C108.792 228.496 106.45 226.152 103.562 226.152C100.673 226.152 98.3313 228.496 98.3313 231.387C98.3313 234.279 100.673 236.622 103.562 236.622Z" fill="#024EDB"/>
<path d="M88.9166 236.622C91.8052 236.622 94.1469 234.279 94.1469 231.387C94.1469 228.496 91.8052 226.152 88.9166 226.152C86.0279 226.152 83.6862 228.496 83.6862 231.387C83.6862 234.279 86.0279 236.622 88.9166 236.622Z" fill="#024EDB"/>
<path d="M74.2715 236.622C77.1601 236.622 79.5019 234.279 79.5019 231.387C79.5019 228.496 77.1601 226.152 74.2715 226.152C71.3828 226.152 69.0411 228.496 69.0411 231.387C69.0411 234.279 71.3828 236.622 74.2715 236.622Z" fill="#024EDB"/>
<path d="M238.506 59.1556V19.3695H258.381V0H161.096V97.3712H244.259V87.851C244.259 86.0763 244.608 84.319 245.287 82.6794C245.965 81.0399 246.96 79.5501 248.214 78.2952C249.467 77.0404 250.956 76.0449 252.594 75.3658C254.232 74.6867 255.988 74.3371 257.761 74.3371H258.381V59.1556H238.506Z" fill="#F0F0F0"/>
<path d="M346.252 251.28H281.395V264.891H346.252V251.28Z" fill="#024EDB"/>
<path d="M360.374 184.272H265.181V196.836H360.374V184.272Z" fill="#F0F0F0"/>
<path d="M406.924 321.953H0V323H406.924V321.953Z" fill="#3F3D56"/>
<path d="M376.685 323H257.761C254.043 322.996 250.478 321.515 247.849 318.884C245.219 316.252 243.74 312.684 243.736 308.963V87.851C243.74 84.1294 245.219 80.5613 247.848 77.9297C250.478 75.2981 254.043 73.8178 257.761 73.8136H376.685C380.403 73.8178 383.968 75.2981 386.597 77.9297C389.227 80.5613 390.706 84.1294 390.71 87.851V308.963C390.706 312.684 389.227 316.252 386.597 318.884C383.968 321.515 380.403 322.996 376.685 323ZM257.761 74.8606C254.32 74.8645 251.021 76.2344 248.588 78.6697C246.155 81.1051 244.786 84.4069 244.782 87.851V308.963C244.786 312.407 246.155 315.709 248.588 318.144C251.021 320.579 254.32 321.949 257.761 321.953H376.685C380.126 321.949 383.425 320.579 385.858 318.144C388.291 315.709 389.66 312.407 389.664 308.963V87.851C389.66 84.4069 388.291 81.1051 385.858 78.6697C383.425 76.2344 380.126 74.8645 376.685 74.8606H257.761Z" fill="#3F3D56"/>
<path d="M303.101 84.2836C302.48 84.2836 301.873 84.0994 301.357 83.7543C300.841 83.4092 300.439 82.9186 300.202 82.3447C299.964 81.7707 299.902 81.1392 300.023 80.5299C300.144 79.9206 300.443 79.3609 300.882 78.9216C301.321 78.4823 301.88 78.1832 302.489 78.062C303.097 77.9408 303.728 78.003 304.302 78.2407C304.875 78.4784 305.365 78.881 305.71 79.3976C306.055 79.9141 306.239 80.5214 306.239 81.1426C306.238 81.9754 305.907 82.7738 305.319 83.3627C304.731 83.9515 303.933 84.2827 303.101 84.2836ZM303.101 79.0486C302.687 79.0486 302.283 79.1714 301.939 79.4015C301.594 79.6316 301.326 79.9587 301.168 80.3413C301.01 80.7239 300.968 81.145 301.049 81.5512C301.13 81.9574 301.329 82.3305 301.621 82.6233C301.914 82.9162 302.287 83.1156 302.693 83.1964C303.099 83.2772 303.519 83.2357 303.902 83.0772C304.284 82.9188 304.611 82.6504 304.84 82.306C305.07 81.9616 305.193 81.5568 305.193 81.1426C305.192 80.5874 304.972 80.0552 304.58 79.6626C304.187 79.27 303.656 79.0492 303.101 79.0486Z" fill="#3F3D56"/>
<path d="M333.96 80.6191H310.946V81.6661H333.96V80.6191Z" fill="#3F3D56"/>
<path d="M381.295 88.9951V130.875C370.198 130.875 359.555 126.462 351.708 118.608C343.861 110.754 339.453 100.102 339.452 88.9951H381.295Z" fill="#024EDB"/>
<path d="M381.818 308.865H252.628V88.4716H381.818V308.865ZM253.674 307.818H380.772V89.5186H253.674V307.818Z" fill="#3F3D56"/>
<path opacity="0.1" d="M350.959 128.258C358.758 128.258 365.081 121.929 365.081 114.123C365.081 106.317 358.758 99.9887 350.959 99.9887C343.16 99.9887 336.837 106.317 336.837 114.123C336.837 121.929 343.16 128.258 350.959 128.258Z" fill="black"/>
<path d="M348.867 129.828C356.666 129.828 362.989 123.5 362.989 115.694C362.989 107.887 356.666 101.559 348.867 101.559C341.067 101.559 334.745 107.887 334.745 115.694C334.745 123.5 341.067 129.828 348.867 129.828Z" fill="#024EDB"/>
<path d="M278.257 97.3712H258.381V104.7H278.257V97.3712Z" fill="#3F3D56"/>
<path d="M289.24 166.997H269.365V174.326H289.24V166.997Z" fill="#3F3D56"/>
<path d="M365.604 194.219H269.365V180.608H365.604V194.219ZM270.411 193.172H364.558V181.655H270.411V193.172Z" fill="#3F3D56"/>
<path d="M360.374 224.058H265.181V236.622H360.374V224.058Z" fill="#F0F0F0"/>
<path d="M289.24 206.783H269.365V214.112H289.24V206.783Z" fill="#3F3D56"/>
<path d="M365.604 234.005H269.365V220.394H365.604V234.005ZM270.411 232.958H364.558V221.441H270.411V232.958Z" fill="#3F3D56"/>
<path d="M350.436 261.75H284.533V247.092H350.436V261.75ZM285.579 260.703H349.39V248.139H285.579V260.703Z" fill="#3F3D56"/>
<path d="M362.989 188.984C362.989 190.062 362.656 191.113 362.037 191.995C361.418 192.876 360.542 193.545 359.528 193.91C358.515 194.275 357.414 194.317 356.376 194.033C355.337 193.748 354.412 193.149 353.726 192.318L353.721 192.313C353.221 191.706 352.864 190.994 352.677 190.23C352.489 189.466 352.477 188.67 352.639 187.9C352.802 187.13 353.136 186.407 353.616 185.784C354.097 185.162 354.711 184.655 355.414 184.303C356.117 183.951 356.89 183.762 357.676 183.749C358.462 183.737 359.24 183.903 359.953 184.233C360.667 184.564 361.296 185.051 361.796 185.659C362.295 186.266 362.651 186.979 362.837 187.743C362.837 187.744 362.837 187.744 362.837 187.745C362.838 187.746 362.838 187.746 362.839 187.747C362.839 187.747 362.84 187.748 362.84 187.748C362.841 187.748 362.842 187.748 362.842 187.748C362.939 188.153 362.988 188.568 362.989 188.984Z" fill="#024EDB"/>
<path opacity="0.1" d="M362.989 188.984C362.989 190.062 362.656 191.113 362.037 191.995C361.418 192.876 360.542 193.545 359.528 193.91C358.515 194.275 357.414 194.317 356.376 194.033C355.337 193.748 354.412 193.149 353.726 192.318L353.721 192.313C353.624 191.909 353.575 191.494 353.574 191.078C353.574 190 353.907 188.949 354.526 188.067C355.145 187.185 356.021 186.517 357.035 186.152C358.048 185.787 359.149 185.744 360.187 186.029C361.226 186.314 362.151 186.912 362.837 187.743C362.837 187.744 362.837 187.744 362.837 187.745C362.838 187.746 362.838 187.746 362.839 187.747C362.839 187.747 362.84 187.748 362.84 187.748C362.841 187.748 362.842 187.748 362.842 187.748C362.939 188.153 362.988 188.568 362.989 188.984Z" fill="black"/>
<path d="M359.851 197.36C362.739 197.36 365.081 195.016 365.081 192.125C365.081 189.234 362.739 186.89 359.851 186.89C356.962 186.89 354.62 189.234 354.62 192.125C354.62 195.016 356.962 197.36 359.851 197.36Z" fill="#024EDB"/>
<path d="M362.989 228.77C362.989 229.848 362.656 230.899 362.037 231.781C361.418 232.662 360.542 233.331 359.528 233.696C358.515 234.061 357.414 234.104 356.376 233.819C355.337 233.534 354.412 232.935 353.726 232.105L353.721 232.099C353.221 231.492 352.864 230.78 352.677 230.016C352.489 229.252 352.477 228.456 352.639 227.686C352.802 226.916 353.136 226.193 353.616 225.57C354.097 224.948 354.711 224.441 355.414 224.089C356.117 223.737 356.89 223.548 357.676 223.535C358.462 223.523 359.24 223.689 359.953 224.019C360.667 224.35 361.296 224.837 361.796 225.445C362.295 226.052 362.651 226.765 362.837 227.529C362.837 227.53 362.837 227.531 362.837 227.531C362.838 227.532 362.838 227.532 362.839 227.533C362.839 227.533 362.84 227.534 362.84 227.534C362.841 227.534 362.842 227.534 362.842 227.534C362.939 227.939 362.988 228.354 362.989 228.77Z" fill="#024EDB"/>
<path opacity="0.1" d="M362.989 228.77C362.989 229.848 362.656 230.899 362.037 231.781C361.418 232.662 360.542 233.331 359.528 233.696C358.515 234.061 357.414 234.104 356.376 233.819C355.337 233.534 354.412 232.935 353.726 232.105L353.721 232.099C353.624 231.695 353.575 231.28 353.574 230.864C353.574 229.786 353.907 228.735 354.526 227.853C355.145 226.971 356.021 226.303 357.035 225.938C358.048 225.573 359.149 225.53 360.187 225.815C361.226 226.1 362.151 226.698 362.837 227.529C362.837 227.53 362.837 227.531 362.837 227.531C362.838 227.532 362.838 227.532 362.839 227.533C362.839 227.533 362.84 227.534 362.84 227.534C362.841 227.534 362.842 227.534 362.842 227.534C362.939 227.939 362.988 228.354 362.989 228.77Z" fill="black"/>
<path d="M359.851 237.146C362.739 237.146 365.081 234.802 365.081 231.911C365.081 229.02 362.739 226.676 359.851 226.676C356.962 226.676 354.62 229.02 354.62 231.911C354.62 234.802 356.962 237.146 359.851 237.146Z" fill="#024EDB"/>
<path d="M271.98 25.128H244.782V52.3501H271.98V25.128Z" fill="#F0F0F0"/>
<path d="M350.959 45.0211C349.718 45.0211 348.504 44.6526 347.472 43.9624C346.44 43.2721 345.635 42.291 345.16 41.1431C344.685 39.9952 344.561 38.7321 344.803 37.5135C345.045 36.2949 345.643 35.1756 346.521 34.297C347.399 33.4185 348.517 32.8202 349.734 32.5778C350.952 32.3354 352.214 32.4598 353.361 32.9352C354.508 33.4107 355.488 34.2159 356.178 35.249C356.867 36.282 357.235 37.4966 357.235 38.7391C357.233 40.4046 356.572 42.0014 355.395 43.1791C354.218 44.3568 352.623 45.0192 350.959 45.0211ZM350.959 33.5041C349.924 33.5041 348.913 33.8111 348.053 34.3863C347.193 34.9615 346.523 35.7791 346.127 36.7357C345.731 37.6923 345.627 38.7449 345.829 39.7604C346.031 40.7759 346.529 41.7087 347.26 42.4408C347.992 43.1729 348.924 43.6715 349.938 43.8735C350.953 44.0755 352.005 43.9718 352.96 43.5756C353.916 43.1794 354.733 42.5084 355.308 41.6475C355.883 40.7866 356.189 39.7745 356.189 38.7391C356.188 37.3511 355.636 36.0205 354.656 35.0391C353.675 34.0577 352.346 33.5056 350.959 33.5041Z" fill="#3F3D56"/>
<path d="M212.877 132.446H199.278V118.835H212.877V132.446ZM200.324 131.399H211.831V119.882H200.324V131.399Z" fill="#3F3D56"/>
<path d="M420 234.005H406.401V220.394H420V234.005ZM407.447 232.958H418.954V221.441H407.447V232.958Z" fill="#3F3D56"/>
<path d="M151.683 142.741L154.016 143.999L161.957 148.283L174.777 155.196L182.248 141.322C182.952 140.019 183.391 138.589 183.542 137.115C183.693 135.641 183.552 134.152 183.127 132.733C182.703 131.314 182.002 129.992 181.067 128.844C180.131 127.696 178.978 126.744 177.674 126.042C174.888 124.536 171.696 123.954 168.559 124.38C165.421 124.806 162.499 126.218 160.215 128.413L160.211 128.417C159.087 129.497 158.138 130.747 157.399 132.12L151.683 142.741Z" fill="#2F2E41"/>
<path d="M186.672 284.228L185.106 301.472L179.233 302.255L175.317 282.66L186.672 284.228Z" fill="#FFB8B8"/>
<path d="M177.667 302.255C177.667 302.255 185.106 298.336 186.673 301.472C186.673 301.472 185.498 310.877 190.197 312.053C194.895 313.229 196.853 321.459 190.197 322.243C183.54 323.027 179.233 320.675 176.884 320.675C174.534 320.675 176.884 312.445 176.884 312.445L177.667 302.255Z" fill="#2F2E41"/>
<path d="M139.294 284.228L140.86 301.472L146.733 302.255L150.649 282.66L139.294 284.228Z" fill="#FFB8B8"/>
<path d="M148.299 302.255C148.299 302.255 140.86 298.336 139.294 301.472C139.294 301.472 140.468 310.877 135.769 312.053C131.071 313.229 129.113 321.459 135.769 322.243C142.426 323.027 146.733 320.675 149.083 320.675C151.432 320.675 149.083 312.445 149.083 312.445L148.299 302.255Z" fill="#2F2E41"/>
<path d="M171.402 145.884C177.024 145.884 181.582 141.322 181.582 135.695C181.582 130.067 177.024 125.505 171.402 125.505C165.779 125.505 161.221 130.067 161.221 135.695C161.221 141.322 165.779 145.884 171.402 145.884Z" fill="#FFB8B8"/>
<path d="M138.902 155.682L147.125 168.615L156.914 167.831L172.968 169.007C172.968 169.007 174.483 165.973 175.721 163.022C176.398 161.549 176.919 160.008 177.275 158.425C177.667 155.682 172.185 152.939 172.185 152.939C172.185 152.939 171.969 152.899 171.609 152.813C171.131 152.7 170.395 152.511 169.589 152.237C167.768 151.618 165.579 150.568 165.137 149.02C164.353 146.276 170.227 142.357 170.227 142.357L163.179 135.695C163.179 135.695 156.918 144.399 149.314 146.382C148.873 146.499 148.426 146.59 147.974 146.656C147.951 146.66 147.931 146.664 147.908 146.668C139.685 147.844 138.902 155.682 138.902 155.682Z" fill="#FFB8B8"/>
<path d="M143.209 152.155L138.902 155.682C138.902 155.682 135.378 172.534 136.553 177.237C137.727 181.94 136.161 186.251 136.161 187.035C136.161 187.818 132.637 217.211 132.637 217.211C132.637 217.211 125.589 232.888 133.029 231.32C140.468 229.753 137.727 214.076 137.727 214.076L146.733 186.643V163.52L143.209 152.155Z" fill="#FFB8B8"/>
<path d="M174.143 155.29L177.275 157.641L178.841 190.562L190.588 218.779C190.588 218.779 199.202 232.496 193.721 232.888C188.239 233.28 184.715 218.779 184.715 218.779L174.143 191.737L172.576 165.48L174.143 155.29Z" fill="#FFB8B8"/>
<path d="M154.564 157.641C154.564 157.641 162.396 163.128 174.926 161.169C174.926 161.169 178.45 168.223 176.492 172.142C174.534 176.061 178.841 185.467 179.624 186.643C180.407 187.818 189.413 212.117 192.546 238.374C195.678 264.632 204.293 282.66 196.853 285.011C189.413 287.363 174.143 290.106 172.576 287.755C171.01 285.403 168.661 227.009 168.661 227.009L164.353 249.348C164.353 249.348 170.227 287.363 165.92 288.147C161.613 288.931 134.595 286.579 135.378 281.876C136.161 277.173 143.992 252.483 143.992 252.483C143.992 252.483 143.601 203.103 151.432 193.697C151.432 193.697 154.564 188.602 150.257 181.94C145.95 175.277 146.342 164.696 146.342 164.696C146.342 164.696 149.474 164.696 154.564 157.641Z" fill="#2F2E41"/>
<path d="M147.974 146.656L154.565 161.169L156.131 160.385L149.313 146.382L147.974 146.656Z" fill="#2F2E41"/>
<path d="M169.589 152.237L174.534 163.128L175.721 163.022L175.317 161.169L171.609 152.813C171.131 152.699 170.395 152.511 169.589 152.237Z" fill="#2F2E41"/>
<path d="M154.016 143.999C154.393 145.212 155.118 146.286 156.102 147.087C157.086 147.889 158.284 148.382 159.547 148.505C160.809 148.628 162.08 148.375 163.2 147.779C164.319 147.182 165.238 146.268 165.841 145.151C160.888 138.669 165.137 134.597 173.183 131.517C173.789 130.391 174.047 129.11 173.924 127.837C173.8 126.564 173.301 125.357 172.49 124.368C170.272 124.085 168.019 124.3 165.895 125C163.771 125.7 161.83 126.866 160.215 128.413L160.211 128.417L154.494 139.03C154.087 139.784 153.835 140.613 153.753 141.466C153.671 142.32 153.76 143.181 154.016 143.999Z" fill="#2F2E41"/>
<path d="M165.332 139.222C166.089 139.222 166.703 138.169 166.703 136.87C166.703 135.572 166.089 134.519 165.332 134.519C164.576 134.519 163.962 135.572 163.962 136.87C163.962 138.169 164.576 139.222 165.332 139.222Z" fill="#FFB8B8"/>
<path d="M169.416 133.034L181.187 138.371L183.344 133.606C182.973 131.864 182.194 130.235 181.073 128.852L172.972 125.18L169.416 133.034Z" fill="#2F2E41"/>
<path d="M197.709 238.193C200.597 238.193 202.939 235.849 202.939 232.958C202.939 230.067 200.597 227.723 197.709 227.723C194.82 227.723 192.478 230.067 192.478 232.958C192.478 235.849 194.82 238.193 197.709 238.193Z" fill="#024EDB"/>
<path d="M29.7905 269.313C31.6783 269.313 33.2087 267.781 33.2087 265.892C33.2087 264.002 31.6783 262.471 29.7905 262.471C27.9026 262.471 26.3722 264.002 26.3722 265.892C26.3722 267.781 27.9026 269.313 29.7905 269.313Z" fill="#FF6584"/>
<path d="M47.0605 283.723H46.0144V322.677H47.0605V283.723Z" fill="#3F3D56"/>
<path d="M46.5375 289.232C49.5772 289.232 52.0414 286.765 52.0414 283.723C52.0414 280.681 49.5772 278.214 46.5375 278.214C43.4978 278.214 41.0337 280.681 41.0337 283.723C41.0337 286.765 43.4978 289.232 46.5375 289.232Z" fill="#3F3D56"/>
<path d="M46.5375 307.731C46.5375 307.731 45.7512 290.806 29.6329 292.773L46.5375 307.731Z" fill="#3F3D56"/>
</svg>
